<?xml version="1.0" standalone="no"?><!DOCTYPE svg PUBLIC "-//W3C//DTD SVG 1.1//EN" "http://www.w3.org/Graphics/SVG/1.1/DTD/svg11.dtd"><svg t="1597061795789" class="icon" viewBox="0 0 1024 1024" version="1.1" xmlns="http://www.w3.org/2000/svg" p-id="21899" xmlns:xlink="http://www.w3.org/1999/xlink" width="50" height="50"><defs><style type="text/css"></style></defs><path d="M324.6 137h375V212H324.6zM212 287V362h42.2l25 150h127.2c15.6-43.6 56.8-75 105.6-75s90 31.4 105.6 75h127.2l25-150H812v-75H212zM549.6 549.6c0-20.6-16.8-37.6-37.6-37.6-20.6 0-37.6 16.8-37.6 37.6 0 20.6 16.8 37.6 37.6 37.6 20.6-0.2 37.6-17 37.6-37.6z" p-id="21900" fill="#0c34ba"></path><path d="M512 662c-48.8 0-90-31.4-105.6-75h-117.2l40 300h365.6l40-300h-117.2C602 630.6 560.8 662 512 662z" p-id="21901" fill="#0c34ba"></path></svg>