<?xml version="1.0" standalone="no"?><!DOCTYPE svg PUBLIC "-//W3C//DTD SVG 1.1//EN" "http://www.w3.org/Graphics/SVG/1.1/DTD/svg11.dtd"><svg t="1597049813488" class="icon" viewBox="0 0 1024 1024" version="1.1" xmlns="http://www.w3.org/2000/svg" p-id="14295" xmlns:xlink="http://www.w3.org/1999/xlink" width="22" height="22"><defs><style type="text/css"></style></defs><path d="M803.84 585.216c-59.904-114.688-123.904-181.76-173.056-296.448-35.84-119.296-7.168-224.256 86.016-288.768-117.248 49.152-232.448 137.728-295.936 247.808C368.64 338.944 344.576 415.744 352.256 522.752c5.12 74.752 25.088 136.192 84.48 191.488-61.44-30.208-89.6-98.304-100.352-177.152-5.632-38.4-13.824-73.728-37.888-106.496-24.576-30.208-49.152-38.4-87.04-51.712 87.04 51.712 22.016 177.664-2.56 226.304-46.592 92.672-50.688 177.664-13.824 251.904 23.04 47.104 128.512 163.84 324.608 165.888l43.52 0.512c150.016-3.072 248.832-109.056 274.432-183.808 37.888-108.032-1.024-183.296-33.792-254.464z" p-id="14296" fill="#ff5a5a"></path></svg>